<?xml version="1.0" encoding="UTF-8" ?>
<!DOCTYPE svg PUBLIC "-//W3C//DTD SVG 1.1//EN" "http://www.w3.org/Graphics/SVG/1.1/DTD/svg11.dtd">
<svg width="1200pt" height="1200pt" viewBox="0 0 1200 1200" version="1.1" xmlns="http://www.w3.org/2000/svg">
<g id="#545454ff">
<path fill="#545454" opacity="1.00" d=" M 549.99 3.23 C 571.64 2.60 593.26 -0.21 614.95 1.33 C 622.66 2.16 630.44 1.82 638.17 2.60 C 655.25 3.23 672.30 4.93 689.17 7.75 C 767.60 19.02 843.49 46.75 911.16 87.88 C 941.25 106.37 970.05 127.08 996.33 150.71 C 1015.97 167.65 1034.11 186.26 1051.28 205.67 C 1080.55 238.74 1105.68 275.35 1127.14 313.91 C 1136.37 331.63 1145.53 349.44 1152.96 368.02 C 1168.69 404.87 1180.42 443.40 1188.27 482.69 C 1191.72 501.40 1194.48 520.24 1196.70 539.14 C 1198.19 553.68 1198.04 568.35 1200.00 582.86 L 1200.00 618.11 C 1198.53 624.70 1199.11 631.49 1198.34 638.16 C 1197.54 661.17 1194.29 684.01 1190.66 706.71 C 1187.26 725.31 1183.32 743.84 1178.05 762.01 C 1167.44 801.88 1151.86 840.34 1132.92 876.96 C 1100.29 939.97 1056.34 997.09 1003.79 1044.77 C 977.85 1068.64 949.64 1090.00 919.79 1108.73 C 886.15 1130.06 850.37 1148.05 813.08 1162.04 C 792.60 1170.26 771.37 1176.31 750.11 1182.10 C 721.98 1189.33 693.29 1194.29 664.42 1197.45 C 655.09 1198.61 645.65 1198.70 636.33 1200.00 L 563.66 1200.00 C 552.82 1198.56 541.88 1198.22 531.03 1196.91 C 450.43 1187.86 371.68 1162.10 301.44 1121.51 C 234.30 1083.22 174.99 1031.48 127.36 970.65 C 110.90 950.00 96.36 927.89 82.72 905.30 C 74.84 891.09 66.50 877.10 59.79 862.28 C 41.50 824.71 27.29 785.17 17.42 744.57 C 9.23 713.86 5.26 682.23 2.28 650.65 C 1.64 639.80 1.71 628.87 0.00 618.11 L 0.00 586.90 C 1.75 579.32 0.54 571.49 1.66 563.83 C 2.10 550.32 3.00 536.80 5.40 523.48 C 7.31 507.66 9.48 491.84 13.27 476.34 C 25.48 416.50 47.80 358.87 77.68 305.67 C 104.23 258.74 137.18 215.44 175.28 177.29 C 209.41 142.75 248.12 112.91 289.45 87.50 C 306.53 77.60 323.67 67.75 341.62 59.52 C 367.07 47.23 393.49 36.99 420.41 28.41 C 430.61 24.95 441.15 22.68 451.45 19.56 C 465.10 16.31 478.82 13.38 492.58 10.64 C 511.65 7.68 530.73 4.62 549.99 3.23 M 571.41 76.41 C 545.71 78.90 519.79 80.70 494.58 86.64 C 480.94 88.88 467.68 92.84 454.37 96.48 C 384.82 116.68 319.23 150.99 263.90 197.84 C 245.62 213.12 228.01 229.31 212.21 247.19 C 180.34 281.88 153.25 320.94 131.97 362.97 C 124.81 377.12 117.90 391.43 112.27 406.28 C 102.75 429.33 95.93 453.36 89.41 477.39 C 82.85 505.54 78.49 534.19 76.08 562.97 C 76.50 570.04 74.56 576.96 74.97 584.01 C 75.24 592.34 74.84 600.67 75.04 609.01 C 75.27 615.25 74.49 621.53 75.33 627.75 C 76.24 633.81 75.92 639.96 76.77 646.03 C 77.04 656.09 79.01 666.00 79.98 676.00 C 90.29 744.01 113.13 810.35 148.70 869.32 C 186.42 933.19 238.37 988.33 298.91 1031.06 C 318.83 1044.56 339.15 1057.57 360.72 1068.31 C 399.38 1088.25 440.66 1102.94 482.96 1112.99 C 504.11 1117.32 525.31 1121.76 546.89 1123.29 C 552.94 1123.67 558.91 1125.03 564.99 1124.95 C 571.37 1124.73 577.64 1126.48 584.03 1125.89 C 597.03 1126.05 610.03 1125.91 623.02 1125.93 C 628.33 1125.26 633.66 1124.82 639.02 1124.90 C 652.19 1123.74 665.32 1122.06 678.44 1120.41 C 687.76 1118.94 696.97 1116.84 706.28 1115.32 C 715.09 1114.05 723.55 1111.18 732.23 1109.29 C 791.72 1093.92 848.23 1067.56 898.78 1032.69 C 929.06 1011.57 957.14 987.33 982.48 960.47 C 1007.03 934.51 1028.71 905.89 1047.65 875.61 C 1057.88 858.79 1067.07 841.35 1075.61 823.61 C 1082.82 807.52 1090.08 791.38 1095.58 774.60 C 1102.21 755.24 1108.09 735.58 1112.46 715.58 C 1117.93 688.65 1122.71 661.47 1123.99 634.00 C 1123.77 628.96 1125.09 624.03 1125.07 619.01 C 1124.75 606.33 1124.94 593.65 1125.00 580.97 C 1124.84 576.96 1123.87 573.02 1123.95 568.99 C 1124.21 559.67 1122.22 550.50 1121.62 541.23 C 1119.95 529.13 1118.39 516.99 1115.99 505.01 C 1108.82 464.23 1096.11 424.50 1079.39 386.65 C 1070.98 367.37 1060.73 348.98 1050.16 330.82 C 1036.19 308.53 1021.46 286.65 1004.50 266.52 C 957.72 209.64 898.69 162.94 832.72 130.24 C 796.53 112.10 758.08 98.68 718.73 89.30 C 701.74 86.38 685.03 81.68 667.78 80.38 C 652.93 78.23 637.96 77.16 623.02 75.97 C 611.00 76.09 598.99 75.88 586.98 76.07 C 581.79 76.18 576.57 75.59 571.41 76.41 Z" />
<path fill="#545454" opacity="1.00" d=" M 175.41 571.33 C 178.03 556.35 190.24 543.67 205.06 540.39 C 211.28 540.11 217.58 539.98 223.79 540.52 C 229.27 541.98 234.27 544.92 238.89 548.13 C 248.01 555.58 258.09 561.70 267.95 568.08 C 282.57 577.72 297.96 586.07 313.18 594.70 C 334.49 605.51 356.21 615.47 378.20 624.82 C 395.53 631.01 412.71 637.65 430.39 642.83 C 440.29 645.81 450.13 649.19 460.33 651.00 C 470.68 653.24 480.84 656.35 491.37 657.68 C 504.48 660.25 517.69 662.31 530.98 663.64 C 536.40 663.68 541.54 665.99 546.99 665.58 C 552.05 665.30 557.00 666.80 562.05 666.44 C 568.38 666.20 574.67 667.19 581.00 667.20 C 597.34 667.37 613.70 667.57 630.03 666.78 C 634.06 666.61 638.21 667.49 642.15 666.22 C 646.00 664.99 650.06 665.47 654.03 665.41 C 657.73 665.45 661.33 664.44 665.00 664.07 C 673.46 663.32 681.93 662.29 690.20 660.32 C 694.77 659.28 699.53 659.40 704.07 658.17 C 710.43 656.45 717.06 656.19 723.42 654.51 C 732.88 652.07 742.48 650.24 751.94 647.82 C 763.75 644.30 775.56 640.72 787.30 636.97 C 795.22 633.74 803.46 631.41 811.41 628.28 C 825.53 622.43 839.74 616.75 853.68 610.47 C 872.90 601.07 892.28 591.85 910.50 580.57 C 921.70 573.85 932.64 566.70 943.61 559.61 C 952.81 553.91 960.57 545.94 970.59 541.57 C 974.81 539.71 979.51 540.28 984.00 540.23 C 989.26 540.33 994.95 539.47 999.70 542.35 C 1010.43 547.29 1019.44 556.66 1022.31 568.29 C 1022.73 574.53 1024.67 580.89 1022.96 587.09 C 1020.57 597.08 1014.18 605.92 1005.66 611.61 C 994.33 619.33 983.57 627.92 971.60 634.66 C 961.66 640.67 952.35 647.68 942.06 653.11 C 933.17 658.31 923.83 662.72 914.95 667.94 C 911.40 669.92 907.52 671.33 904.29 673.84 C 908.89 682.60 915.11 690.39 919.98 699.00 C 931.02 716.58 942.24 734.04 953.50 751.47 C 961.94 765.33 971.39 778.57 979.25 792.79 C 987.17 806.31 981.67 825.46 968.05 833.08 C 961.71 837.83 953.47 836.95 946.05 836.59 C 937.00 835.23 929.37 828.73 924.98 820.91 C 921.45 814.61 917.04 808.89 913.23 802.77 C 902.07 785.84 891.72 768.40 880.44 751.55 C 869.60 734.02 858.42 716.69 847.50 699.21 C 842.34 699.76 837.84 702.52 833.06 704.29 C 823.55 708.45 813.43 710.94 803.71 714.52 C 787.59 719.54 771.39 724.40 754.84 727.90 C 749.28 728.99 743.98 731.14 738.38 732.06 C 727.58 733.71 716.83 735.72 706.15 738.03 C 701.69 738.91 697.04 738.36 692.65 739.64 C 682.65 742.39 672.15 741.57 662.02 743.32 C 657.61 743.79 653.11 742.77 648.78 743.95 C 645.69 744.75 642.54 745.28 639.37 745.64 C 638.31 752.38 639.04 759.21 638.86 766.00 C 639.01 805.00 638.63 844.02 639.07 883.02 C 638.63 894.99 632.76 906.92 622.81 913.79 C 617.20 917.44 610.92 920.81 604.05 920.78 C 596.95 920.93 589.58 920.68 582.92 917.94 C 575.27 914.08 568.56 908.13 564.44 900.56 C 561.90 896.11 559.49 891.30 559.37 886.07 C 559.20 839.38 559.53 792.67 559.21 745.98 C 552.55 744.53 545.86 742.81 538.99 743.43 C 532.39 742.76 525.69 742.50 519.23 740.95 C 502.58 738.99 485.89 736.98 469.45 733.58 C 463.80 732.68 458.10 731.98 452.61 730.30 C 444.46 727.78 436.00 726.48 427.82 724.06 C 418.53 722.28 409.75 718.67 400.63 716.23 C 389.76 712.93 379.13 708.88 368.31 705.44 C 362.52 703.65 357.40 699.97 351.35 699.10 C 345.55 707.19 340.85 716.00 335.16 724.17 C 325.65 739.28 316.13 754.39 306.37 769.34 C 301.28 776.43 297.16 784.14 292.35 791.40 C 287.53 799.48 282.24 807.26 277.26 815.25 C 273.54 820.73 270.28 826.78 264.98 830.95 C 257.17 836.74 246.82 837.93 237.46 836.23 C 229.52 834.09 223.00 828.14 218.94 821.14 C 217.12 817.00 215.94 812.51 215.57 808.01 C 216.56 801.99 216.68 795.49 220.28 790.29 C 227.88 778.54 235.16 766.59 242.84 754.88 C 248.86 744.38 256.06 734.63 262.29 724.26 C 271.45 710.65 279.74 696.48 288.76 682.77 C 290.72 679.79 293.47 677.10 293.92 673.39 C 284.09 667.63 273.70 662.88 263.85 657.17 C 256.40 652.98 248.93 648.82 241.66 644.33 C 233.58 639.45 225.95 633.88 217.81 629.10 C 207.05 621.23 195.54 614.34 185.58 605.41 C 180.65 600.39 177.01 593.90 175.71 586.96 C 175.19 581.78 174.99 576.52 175.41 571.33 Z" />
</g>
<g id="#ffffffff">
<path fill="#ffffff" opacity="1.00" d=" M 571.41 76.41 C 576.57 75.59 581.79 76.18 586.98 76.07 C 598.99 75.88 611.00 76.09 623.02 75.97 C 637.96 77.16 652.93 78.23 667.78 80.38 C 685.03 81.68 701.74 86.38 718.73 89.30 C 758.08 98.68 796.53 112.10 832.72 130.24 C 898.69 162.94 957.72 209.64 1004.50 266.52 C 1021.46 286.65 1036.19 308.53 1050.16 330.82 C 1060.73 348.98 1070.98 367.37 1079.39 386.65 C 1096.11 424.50 1108.82 464.23 1115.99 505.01 C 1118.39 516.99 1119.95 529.13 1121.62 541.23 C 1122.22 550.50 1124.21 559.67 1123.95 568.99 C 1123.87 573.02 1124.84 576.96 1125.00 580.97 C 1124.94 593.65 1124.75 606.33 1125.07 619.01 C 1125.09 624.03 1123.77 628.96 1123.99 634.00 C 1122.71 661.47 1117.93 688.65 1112.46 715.58 C 1108.09 735.58 1102.21 755.24 1095.58 774.60 C 1090.08 791.38 1082.82 807.52 1075.61 823.61 C 1067.07 841.35 1057.88 858.79 1047.65 875.61 C 1028.71 905.89 1007.03 934.51 982.48 960.47 C 957.14 987.33 929.06 1011.57 898.78 1032.69 C 848.23 1067.56 791.72 1093.92 732.23 1109.29 C 723.55 1111.18 715.09 1114.05 706.28 1115.32 C 696.97 1116.84 687.76 1118.94 678.44 1120.41 C 665.32 1122.06 652.19 1123.74 639.02 1124.90 C 633.66 1124.82 628.33 1125.26 623.02 1125.93 C 610.03 1125.91 597.03 1126.05 584.03 1125.89 C 577.64 1126.48 571.37 1124.73 564.99 1124.95 C 558.91 1125.03 552.94 1123.67 546.89 1123.29 C 525.31 1121.76 504.11 1117.32 482.96 1112.99 C 440.66 1102.94 399.38 1088.25 360.72 1068.31 C 339.15 1057.57 318.83 1044.56 298.91 1031.06 C 238.37 988.33 186.42 933.19 148.70 869.32 C 113.13 810.35 90.29 744.01 79.98 676.00 C 79.01 666.00 77.04 656.09 76.77 646.03 C 75.92 639.96 76.24 633.81 75.33 627.75 C 74.49 621.53 75.27 615.25 75.04 609.01 C 74.84 600.67 75.24 592.34 74.97 584.01 C 74.56 576.96 76.50 570.04 76.08 562.97 C 78.49 534.19 82.85 505.54 89.41 477.39 C 95.93 453.36 102.75 429.33 112.27 406.28 C 117.90 391.43 124.81 377.12 131.97 362.97 C 153.25 320.94 180.34 281.88 212.21 247.19 C 228.01 229.31 245.62 213.12 263.90 197.84 C 319.23 150.99 384.82 116.68 454.37 96.48 C 467.68 92.84 480.94 88.88 494.58 86.64 C 519.79 80.70 545.71 78.90 571.41 76.41 M 175.41 571.33 C 174.99 576.52 175.19 581.78 175.71 586.96 C 177.01 593.90 180.65 600.39 185.58 605.41 C 195.54 614.34 207.05 621.23 217.81 629.10 C 225.95 633.88 233.58 639.45 241.66 644.33 C 248.93 648.82 256.40 652.98 263.85 657.17 C 273.70 662.88 284.09 667.63 293.92 673.39 C 293.47 677.10 290.72 679.79 288.76 682.77 C 279.74 696.48 271.45 710.65 262.29 724.26 C 256.06 734.63 248.86 744.38 242.84 754.88 C 235.16 766.59 227.88 778.54 220.28 790.29 C 216.68 795.49 216.56 801.99 215.57 808.01 C 215.94 812.51 217.12 817.00 218.94 821.14 C 223.00 828.14 229.52 834.09 237.46 836.23 C 246.82 837.93 257.17 836.74 264.98 830.95 C 270.28 826.78 273.54 820.73 277.26 815.25 C 282.24 807.26 287.53 799.48 292.35 791.40 C 297.16 784.14 301.28 776.43 306.37 769.34 C 316.13 754.39 325.65 739.28 335.16 724.17 C 340.85 716.00 345.55 707.19 351.35 699.10 C 357.40 699.97 362.52 703.65 368.31 705.44 C 379.13 708.88 389.76 712.93 400.63 716.23 C 409.75 718.67 418.53 722.28 427.82 724.06 C 436.00 726.48 444.46 727.78 452.61 730.30 C 458.10 731.98 463.80 732.68 469.45 733.58 C 485.89 736.98 502.58 738.99 519.23 740.95 C 525.69 742.50 532.39 742.76 538.99 743.43 C 545.86 742.81 552.55 744.53 559.21 745.98 C 559.53 792.67 559.20 839.38 559.37 886.07 C 559.49 891.30 561.90 896.11 564.44 900.56 C 568.56 908.13 575.27 914.08 582.92 917.94 C 589.58 920.68 596.95 920.93 604.05 920.78 C 610.92 920.81 617.20 917.44 622.81 913.79 C 632.76 906.92 638.63 894.99 639.07 883.02 C 638.63 844.02 639.01 805.00 638.86 766.00 C 639.04 759.21 638.31 752.38 639.37 745.64 C 642.54 745.28 645.69 744.75 648.78 743.95 C 653.11 742.77 657.61 743.79 662.02 743.32 C 672.15 741.57 682.65 742.39 692.65 739.64 C 697.04 738.36 701.69 738.91 706.15 738.03 C 716.83 735.72 727.58 733.71 738.38 732.06 C 743.98 731.14 749.28 728.99 754.84 727.90 C 771.39 724.40 787.59 719.54 803.71 714.52 C 813.43 710.94 823.55 708.45 833.06 704.29 C 837.84 702.52 842.34 699.76 847.50 699.21 C 858.42 716.69 869.60 734.02 880.44 751.55 C 891.72 768.40 902.07 785.84 913.23 802.77 C 917.04 808.89 921.45 814.61 924.98 820.91 C 929.37 828.73 937.00 835.23 946.05 836.59 C 953.47 836.95 961.71 837.83 968.05 833.08 C 981.67 825.46 987.17 806.31 979.25 792.79 C 971.39 778.57 961.94 765.33 953.50 751.47 C 942.24 734.04 931.02 716.58 919.98 699.00 C 915.11 690.39 908.89 682.60 904.29 673.84 C 907.52 671.33 911.40 669.92 914.95 667.94 C 923.83 662.72 933.17 658.31 942.06 653.11 C 952.35 647.68 961.66 640.67 971.60 634.66 C 983.57 627.92 994.33 619.33 1005.66 611.61 C 1014.18 605.92 1020.57 597.08 1022.96 587.09 C 1024.67 580.89 1022.73 574.53 1022.31 568.29 C 1019.44 556.66 1010.43 547.29 999.70 542.35 C 994.95 539.47 989.26 540.33 984.00 540.23 C 979.51 540.28 974.81 539.71 970.59 541.57 C 960.57 545.94 952.81 553.91 943.61 559.61 C 932.64 566.70 921.70 573.85 910.50 580.57 C 892.28 591.85 872.90 601.07 853.68 610.47 C 839.74 616.75 825.53 622.43 811.41 628.28 C 803.46 631.41 795.22 633.74 787.30 636.97 C 775.56 640.72 763.75 644.30 751.94 647.82 C 742.48 650.24 732.88 652.07 723.42 654.51 C 717.06 656.19 710.43 656.45 704.07 658.17 C 699.53 659.40 694.77 659.28 690.20 660.32 C 681.93 662.29 673.46 663.32 665.00 664.07 C 661.33 664.44 657.73 665.45 654.03 665.41 C 650.06 665.47 646.00 664.99 642.15 666.22 C 638.21 667.49 634.06 666.61 630.03 666.78 C 613.70 667.57 597.34 667.37 581.00 667.20 C 574.67 667.19 568.38 666.20 562.05 666.44 C 557.00 666.80 552.05 665.30 546.99 665.58 C 541.54 665.99 536.40 663.68 530.98 663.64 C 517.69 662.31 504.48 660.25 491.37 657.68 C 480.84 656.35 470.68 653.24 460.33 651.00 C 450.13 649.19 440.29 645.81 430.39 642.83 C 412.71 637.65 395.53 631.01 378.20 624.82 C 356.21 615.47 334.49 605.51 313.18 594.70 C 297.96 586.07 282.57 577.72 267.95 568.08 C 258.09 561.70 248.01 555.58 238.89 548.13 C 234.27 544.92 229.27 541.98 223.79 540.52 C 217.58 539.98 211.28 540.11 205.06 540.39 C 190.24 543.67 178.03 556.35 175.41 571.33 Z" />
</g>
</svg>
